<svg width="300" height="248" xmlns="http://www.w3.org/2000/svg"><path d="M149.936 247.457c-8.568-.11-16.934-1.198-24.88-3.246-8.07-2.048-15.952-5.124-23.426-9.117l-1.242-.674-2.943-1.64-3.291-2.028a66.913 66.913 0 01-1.957-1.275l-.688-.468-1.15-.802-1.224-.87c-3.204-2.29-6.278-4.764-9.665-7.732-5.235-4.66-10.132-9.765-15.003-15.597-5.839-7.045-10.613-13.907-14.647-20.236l-.666-1.05-1.17-1.874-1.13-1.838-1.09-1.8-1.563-2.625a.196.196 0 01-.078-.079l-.027-.051-2.34-4c-6.207-10.654-12.103-21.248-16.972-32.324l-.9-2.082-.782-1.172-1.498-3.52-1.726-4.01-1.117-2.535-.822-1.826-.813-1.76-.538-1.135-.535-1.103-.533-1.072-.532-1.04-.53-1.007-.532-.974-.532-.94-.533-.905c-3.726-6.19-7.605-9.818-12.674-10.01l-.188-.003v-2.582c5.674 0 9.925 3.213 13.796 8.871l.33.491.551.849.547.882c.242.399.483.807.723 1.225l.36.634.538.977.536 1.008.536 1.038.537 1.068.536 1.097.538 1.126.54 1.154.543 1.182.821 1.824.831 1.883 1.128 2.602 2.838 6.667c4.65 10.985 10.409 21.473 16.513 32.02l1.149 1.98 2.316 3.964 1.634 2.74 1.638 2.698 1.435 2.312 1.5 2.365 1.251 1.927c3.61 5.502 7.785 11.352 12.73 17.328 4.793 5.728 9.611 10.728 14.744 15.285 2.977 2.624 5.701 4.827 8.513 6.874l.942.677 1.206.851 1.127.779 1.064.715 1.014.66.494.313 3.222 1.993 2.866 1.614a102.472 102.472 0 0024.042 9.557c7.325 1.888 15.024 2.942 22.894 3.142l1.477.027c8.384-.098 16.59-1.163 24.372-3.17a102.46 102.46 0 0022.765-8.862l1.277-.694 2.866-1.614 3.222-1.993.494-.313 1.014-.66 1.063-.715 1.128-.779 1.206-.851.941-.677c2.813-2.047 5.537-4.25 8.514-6.874 5.133-4.557 9.95-9.557 14.743-15.285 4.616-5.577 8.56-11.045 12.001-16.223l.73-1.105 1.25-1.927 1.501-2.365 1.434-2.312 1.64-2.698 1.633-2.74 2.316-3.965 1.149-1.978c5.723-9.889 11.142-19.724 15.628-29.967l.885-2.054 2.838-6.667 1.128-2.602.83-1.883.821-1.824.543-1.182.54-1.154.539-1.126.536-1.097.536-1.068.536-1.038.537-1.008.538-.977.36-.634.36-.62.363-.605.546-.882.55-.849.332-.49c3.76-5.498 7.88-8.687 13.313-8.865l.483-.007v2.582l-.188.003c-4.928.187-8.732 3.621-12.363 9.5l-.311.51-.533.905-.532.94-.532.974-.53 1.007-.532 1.04-.533 1.072-.535 1.103-.538 1.135-.813 1.76-.823 1.826-1.116 2.536-1.726 4.009-1.498 3.52-.781 1.172-.901 2.082c-4.565 10.384-10.032 20.344-15.812 30.327l-1.16 1.997-2.368 4.051-.032.045-.045.034-1.564 2.625-1.09 1.8-1.128 1.838-1.171 1.874-.666 1.05c-4.035 6.33-8.808 13.191-14.647 20.236-4.87 5.832-9.768 10.936-15.003 15.597-3.049 2.672-5.843 4.942-8.707 7.04l-.958.692-1.224.87-1.15.802-.688.468c-.452.305-.89.594-1.32.87l-.637.405-3.29 2.027-2.944 1.641-1.242.674c-7.474 3.993-15.357 7.07-23.425 9.117-7.48 1.927-15.33 3.005-23.371 3.216l-1.51.03h-.127zm-37.383-35.195c-5.47-3.02-11.228-7.108-16.176-11.51-4.272-3.775-8.31-7.993-12.348-12.836-3.967-4.774-7.453-9.602-10.488-14.153l-.75-1.132-1.177-1.812-.57-.892-1.104-1.753-1.056-1.707-1.008-1.656-.96-1.6-.913-1.54c-3.213-5.469-6.18-10.87-9.025-16.166l-1.212-2.264-2.126-3.99-4.243-8c-3.233-6.079-6.553-12.208-9.936-17.96-2.355-3.995-4.593-7.56-6.751-10.736l-.586-.856-1.073-1.532a99.635 99.635 0 00-4.693-6.118c-2.266-2.734-4.533-5.103-6.747-7.056-2.24-1.979-4.063-3.28-6.252-4.53C9.45 80.235 5.023 79.02.48 78.903l-.481-.007v-2.635c5.076-.014 10.257 1.362 14.742 3.91 2.37 1.353 4.297 2.76 6.694 4.842 2.318 2.057 4.688 4.53 7.032 7.343 3.648 4.397 7.454 9.85 11.56 16.623l1.181 1.97.597 1.013c2.978 5.068 5.896 10.414 8.753 15.758l1.221 2.289 5.495 10.355c3.076 5.791 6.263 11.718 9.733 17.722l1.315 2.254.902 1.524.948 1.583.994 1.637 1.042 1.686.539.86 1.113 1.751c3.413 5.313 7.474 11.13 12.227 16.867 3.96 4.74 7.918 8.853 12.087 12.55 4.82 4.271 10.393 8.255 15.708 11.171 10.985 6.147 23.432 9.49 36.118 9.702l1.086-.026c12.309-.38 24.36-3.705 35.031-9.676 5.315-2.916 10.889-6.9 15.708-11.17 4.169-3.698 8.127-7.81 12.087-12.55 4.436-5.355 8.27-10.78 11.535-15.799l.691-1.069 1.114-1.751.539-.86 1.041-1.686.995-1.637.948-1.583.902-1.524 1.314-2.254c3.037-5.254 5.857-10.448 8.575-15.544l1.159-2.178 5.495-10.355 1.22-2.29c2.45-4.58 4.943-9.161 7.481-13.568l1.273-2.189.597-1.012 1.181-1.971c4.106-6.772 7.912-12.226 11.56-16.623 2.344-2.812 4.714-5.286 7.032-7.343 2.397-2.083 4.324-3.489 6.694-4.843 4.281-2.431 9.197-3.795 14.05-3.902l.692-.007v2.635l-.481.007c-4.543.116-8.97 1.332-12.88 3.558-2.188 1.25-4.012 2.552-6.251 4.531-2.214 1.953-4.48 4.322-6.747 7.056a96.536 96.536 0 00-4.01 5.168l-.683.95-1.073 1.532-.586.856c-2.158 3.177-4.397 6.741-6.75 10.736-2.961 5.033-5.873 10.355-8.72 15.68l-1.217 2.28-4.243 8-2.126 3.99-1.212 2.264c-2.44 4.54-4.967 9.156-7.663 13.826l-1.362 2.34-.913 1.54-.96 1.6-1.008 1.656-1.056 1.707-1.104 1.753-.57.892-1.178 1.812-.75 1.132c-3.034 4.551-6.52 9.38-10.487 14.153-4.038 4.843-8.076 9.061-12.348 12.837-4.948 4.4-10.705 8.488-16.176 11.51-11.056 6.188-23.596 9.621-36.353 9.991l-1.094.024c-13.133-.2-26.074-3.65-37.446-10.016zm26.18-16.17c-13.942-3.842-24.81-11.53-33.85-21.382l-.613-.675-1.112-1.257a104.604 104.604 0 01-1.813-2.143l-.889-1.092-1.05-1.33-.52-.671-.515-.676-1.018-1.367-1.003-1.383-.742-1.05-.735-1.057-.967-1.424-.954-1.44-.94-1.453-.93-1.467-.459-.738-.911-1.485-.9-1.497-.89-1.508-.44-.758-.876-1.523-.866-1.532-.857-1.54-.85-1.548-.842-1.555-.835-1.56-1.652-3.138-1.346-2.599a925.66 925.66 0 01-3.391-6.667l-1.68-3.334-2.995-5.935-1.514-2.971-1.53-2.967c-6.156-11.85-12.755-23.434-20.686-33.042C35.941 66.275 18.812 58.132.405 57.888L0 57.885v-2.604l.416.004c18.898.243 36.505 8.501 48.606 22.75l.547.652c8.428 10.22 15.338 22.535 21.781 35.04l1.48 2.888 1.519 2.997 4.511 8.958 1.36 2.684.913 1.787 1.647 3.193 1.23 2.347 1.243 2.336.837 1.55.844 1.543.853 1.536.86 1.527 1.088 1.896 1.103 1.88.894 1.49.904 1.48.916 1.468.928 1.454.468.721.946 1.433 1.037 1.529c10.615 15.451 23.71 28.01 42.479 33.195a45.288 45.288 0 0010.59 1.59l1.07-.045c3.21-.174 6.403-.69 9.521-1.545 18.46-5.1 31.433-17.334 41.955-32.438l.524-.757 1.036-1.53.947-1.432.468-.721.928-1.454.916-1.467.904-1.48.894-1.492 1.103-1.88 1.088-1.895.86-1.527.852-1.536.845-1.543.837-1.55 1.243-2.336 1.23-2.347 1.647-3.193.912-1.787 1.36-2.684 4.512-8.958 1.52-2.997 1.478-2.888 1.496-2.882c5.77-11.026 11.966-21.788 19.32-30.97l.966-1.188.546-.652c11.916-14.03 29.168-22.252 47.736-22.734l.871-.016.416-.004v2.604l-.406.003c-18.407.244-35.536 8.387-47.157 22.44-7.614 9.223-14 20.27-19.945 31.621l-.74 1.42-1.53 2.968-1.516 2.971-4.674 9.27-1.689 3.335-1.702 3.331-1.347 2.6-1.651 3.136-.835 1.56-.842 1.556-.85 1.547-.857 1.54-.866 1.533-.875 1.523-.441.758-.89 1.508-.9 1.497-.911 1.485-.46.738-.929 1.467-.94 1.453-.954 1.44-.967 1.424-.735 1.058-.742 1.049-1.003 1.383-1.019 1.367-.515.676-.519.672-1.05 1.329-.889 1.092-.9 1.079-.913 1.064-1.112 1.257-.614.675c-9.038 9.853-19.907 17.54-33.848 21.382a47.297 47.297 0 01-10.233 1.66l-1.035.042a47.309 47.309 0 01-11.267-1.702zm11.266-24.113c-4.759-.204-9.433-1.516-13.56-3.878-2.372-1.353-4.3-2.76-6.695-4.842-2.319-2.058-4.689-4.532-7.033-7.343-3.465-4.178-7.073-9.308-10.945-15.617l-.614-1.006-1.18-1.971-.598-1.013c-3.007-5.13-5.977-10.56-8.884-15.995l-2.476-4.653-1.378-2.604-3.886-7.292c-2.734-5.106-5.566-10.306-8.605-15.573L82.83 87.93l-.906-1.524-.953-1.582-.998-1.637-.517-.837-1.068-1.71c-3.64-5.77-8.067-12.243-13.35-18.618-3.958-4.74-7.918-8.853-12.086-12.55-4.818-4.27-10.392-8.255-15.707-11.171-11.05-6.156-23.58-9.502-36.341-9.679l-.905-.006v-2.58h.5a78.987 78.987 0 0137.97 10.026c5.496 3.02 11.228 7.108 16.176 11.509 4.272 3.775 8.31 7.967 12.348 12.836 3.967 4.774 7.453 9.602 10.488 14.154l.749 1.132 1.178 1.812.57.892.558.882 1.08 1.73 1.032 1.682.984 1.63 1.387 2.333c3.282 5.572 6.297 11.063 9.185 16.45l1.078 2.015 3.594 6.766c4.09 7.759 8.335 15.779 12.685 23.147l.59.997.586.979 1.157 1.903c3.828 6.228 7.362 11.284 10.77 15.363 2.266 2.735 4.533 5.103 6.747 7.056 2.24 1.979 4.063 3.28 6.252 4.532A27.639 27.639 0 00150 169.405l.76-.044a27.658 27.658 0 0011.576-3.498c2.189-1.251 4.013-2.553 6.252-4.532 2.214-1.953 4.48-4.321 6.747-7.056 3.218-3.852 6.55-8.576 10.134-14.335l.636-1.028 1.157-1.903 1.176-1.976c2.96-5.015 5.872-10.33 8.72-15.661l1.216-2.285 2.75-5.201 3.593-6.766 1.077-2.015c2.528-4.714 5.152-9.507 7.968-14.365l1.218-2.085 1.387-2.334.984-1.629 1.032-1.682 1.08-1.73.558-.882.57-.892 1.178-1.812.749-1.132c3.035-4.552 6.521-9.38 10.488-14.154 4.038-4.869 8.076-9.06 12.348-12.836 4.948-4.4 10.68-8.489 16.176-11.51a79.005 79.005 0 0136.89-10.01l1.079-.015H300v2.58l-.905.006c-12.761.177-25.29 3.523-36.341 9.679-5.315 2.916-10.889 6.9-15.707 11.17-4.168 3.698-8.128 7.812-12.087 12.55-4.952 5.977-9.152 12.04-12.657 17.53l-.692 1.09-1.068 1.709-.517.837-.999 1.637-.952 1.582-.906 1.524-1.316 2.26c-2.604 4.516-5.057 8.98-7.426 13.38l-1.178 2.194-3.886 7.292-1.378 2.604-2.476 4.653c-2.492 4.66-5.03 9.313-7.598 13.779l-1.286 2.216-.597 1.013-1.181 1.97-.614 1.007c-3.872 6.309-7.48 11.44-10.945 15.617-2.344 2.811-4.714 5.285-7.033 7.343-2.396 2.082-4.323 3.489-6.695 4.842-3.91 2.238-8.31 3.533-12.81 3.836l-.751.042zm-14.21-34.681l-.627-.914c-.311-.464-.619-.94-.923-1.427l-.304-.491-.576-.96-.57-.985-.564-1.01-.28-.512-.557-1.043-.552-1.064-.55-1.083-.818-1.661-.815-1.7-.814-1.734-.814-1.766-3.835-8.439-1.784-3.893c-5.119-11.092-10.79-22.697-17.475-34.095a.116.116 0 00-.027-.077l-.026-.027-1.023-1.73-1.06-1.77-1.1-1.809-1.141-1.845-.587-.936-1.205-1.896c-3.89-6.054-8.466-12.576-13.993-19.255-4.792-5.728-9.612-10.728-14.743-15.284-2.87-2.546-5.64-4.784-8.415-6.804l-1.041-.747a82.706 82.706 0 00-5.391-3.646c-1.746-1.145-3.621-2.239-5.576-3.307a103.546 103.546 0 00-24.042-9.53C16.836 3.868 8.692 2.805.372 2.693L0 2.688V.03c8.73.075 17.254 1.166 25.344 3.25a104.912 104.912 0 0123.335 9.08l2.313 1.262a83.69 83.69 0 013.825 2.261l2.028 1.289a94.22 94.22 0 013.71 2.516l.684.491 1.059.766c2.826 2.071 5.664 4.376 8.604 6.968 5.21 4.608 10.134 9.712 15.004 15.57 4.657 5.633 8.643 11.149 12.117 16.367l.737 1.114 1.263 1.941 1.216 1.91 1.173 1.876.57.925 1.111 1.821 1.071 1.782 1.034 1.74.078.104c6.73 11.469 12.432 23.143 17.58 34.295l.96 2.085 2.82 6.192 2.001 4.417.842 1.827.835 1.783.555 1.163.832 1.7.554 1.105.556 1.079.558 1.053.56 1.025.565.998.284.488.284.48.574.938.579.906c3.61 5.52 7.599 9.163 12.785 9.791l.484-.067c4.792-.765 8.555-4.149 11.962-9.212l.34-.512.58-.906.573-.938.284-.48.284-.488.564-.998.56-1.025.558-1.053.556-1.08.555-1.104.832-1.7.555-1.163.835-1.783.842-1.827 2-4.417 2.822-6.192.958-2.085c4.827-10.455 10.14-21.369 16.33-32.143l1.25-2.152.079-.104 1.033-1.74 1.072-1.782 1.11-1.821.57-.925 1.173-1.876 1.217-1.91 1.263-1.941.736-1.114c3.474-5.218 7.46-10.734 12.118-16.367 4.87-5.858 9.795-10.962 15.004-15.57a125.862 125.862 0 017.543-6.18l1.06-.788 1.744-1.257c.672-.479 1.312-.923 1.928-1.34l.608-.408 1.174-.768 2.028-1.289a83.265 83.265 0 012.837-1.703l.987-.558 2.314-1.262a104.912 104.912 0 0123.335-9.08c7.64-1.968 15.669-3.05 23.891-3.228L300 .03v2.658l-.373.004c-8.32.112-16.464 1.175-24.19 3.167a103.546 103.546 0 00-24.041 9.53c-1.955 1.067-3.83 2.16-5.576 3.306a80.96 80.96 0 00-4.725 3.163l-.666.483-1.041.747c-2.776 2.02-5.544 4.258-8.415 6.804-5.131 4.556-9.95 9.556-14.743 15.284-5.182 6.261-9.528 12.385-13.255 18.115l-.738 1.14-1.206 1.896-.586.936-1.14 1.845-1.1 1.81-1.061 1.77-1.023 1.729-.026.027a.116.116 0 00-.027.077c-6.268 10.686-11.644 21.553-16.509 32.01l-.966 2.085-1.785 3.893-3.834 8.44-.814 1.765-.814 1.734-.815 1.7-.819 1.66-.549 1.084-.553 1.064-.556 1.043-.28.513-.564 1.009-.57.985-.576.96-.304.49-.459.723-.464.705-.627.914c-3.77 5.354-8.082 8.988-13.681 9.692l-.529.057c-5.859-.536-10.323-4.228-14.211-9.75z" fill="#000" fill-rule="nonzero" fill-opacity=".3"/></svg>