<svg width="1441" height="559" viewBox="0 0 1441 559" fill="none" xmlns="http://www.w3.org/2000/svg">
<path d="M821.842 546.574C813.413 552.26 804.023 555.933 793.833 557.566C791.907 557.875 790.05 558.093 787.881 557.878C781.62 558.32 775.425 558.109 769.593 557.037C763.348 555.951 757.719 554.044 752.545 551.341C743.106 546.512 734.219 539.347 726.24 530.029C711.377 512.663 700.572 489.509 692.005 469.207L686.577 456.354C679.557 439.746 672.924 424.054 665.263 411.76C660.341 403.638 655.693 397.881 650.995 393.978C646.574 390.271 641.575 388.183 635.033 387.305C629.477 386.429 624.193 387.357 618.447 390.124C615.677 391.371 612.748 393.205 609.204 395.861C606.231 397.943 603.168 400.521 599.775 403.634C589.68 413.1 579.377 425.965 568.466 439.588L568.049 440.109L568.04 440.12C564.587 444.443 561.133 448.767 557.668 453.012C542.46 471.506 525.842 490.466 506.892 503.218C496.599 510.166 486.181 514.646 475.007 516.839C469.104 518.026 463.164 518.416 457.278 518.075C453.882 517.897 450.864 517.498 447.729 516.877C444.824 516.138 441.734 515.269 438.69 514.151C427.028 509.839 417.293 503.051 409.567 493.773C403.108 485.818 398.246 475.92 394.807 463.466C392.102 453.704 390.424 442.574 389.666 429.369C389.132 417.654 389.261 405.431 389.589 393.979L389.813 385.112L389.826 384.655C390.364 364.988 390.874 346.363 388.561 330.483C387.202 321.468 384.991 314.437 381.846 308.84C378.482 302.877 374.138 298.596 368.344 295.591C342.507 281.751 307.962 306.074 271.428 331.92L271.227 332.062C230.067 361.104 187.593 391.074 148.402 370.026C138.583 364.857 130.864 357.264 125.452 347.534C120.955 339.505 117.849 329.808 116.052 317.893C113.438 300.009 114.016 280.409 114.657 259.594L114.903 250.322C115.165 239.523 115.388 227.927 114.845 216.695C114.326 205.62 112.884 196.057 110.621 187.589C108.115 178.598 104.722 171.355 100.442 165.86C95.5053 159.827 89.2692 155.529 81.3529 152.623C74.3666 149.89 66.885 149.323 58.4955 150.909C50.9083 152.366 43.4208 155.573 35.7118 160.582C23.3066 168.94 11.4585 180.991 0.307133 193.793L0.307129 159.228C7.3912 152.382 14.8093 146.107 22.6278 140.844C33.185 134.014 43.8441 129.495 54.4685 127.471C67.2475 125.021 79.6283 125.926 90.7168 130.25C102.379 134.562 112.113 141.35 119.944 150.772C126.37 159.054 131.139 168.886 134.439 180.961C137.123 191.127 138.801 202.258 139.42 215.084C140.001 227.112 139.848 239.179 139.497 250.474L139.263 259.824L139.249 260.309C138.688 279.809 138.156 298.267 140.445 313.983C141.804 322.997 143.946 330.12 147.171 335.704C150.444 341.601 154.787 345.882 160.593 348.965C186.592 362.853 221.109 338.476 257.708 312.628L257.75 312.598C298.892 283.525 341.453 253.501 380.523 274.452C390.25 279.556 397.958 287.071 403.461 296.866C408.051 304.96 411.157 314.658 412.953 326.572C415.672 344.6 415.117 364.358 414.499 385.329L414.263 394.117C413.945 405.086 413.733 416.761 414.309 427.666C414.968 439.121 416.409 448.684 418.625 456.838C421.179 466.142 424.548 473.229 428.885 478.554C433.821 484.587 440.057 488.885 447.801 491.738C449.8 492.461 451.788 493.106 453.567 493.463C455.255 493.754 457.183 494.007 459.34 494.143C463.149 494.335 466.979 494.123 470.807 493.348C478.623 491.774 486.031 488.58 493.567 483.518C509.75 472.575 524.975 455.283 538.996 438.184C541.619 435.04 544.144 431.867 546.679 428.682C547.508 427.64 548.338 426.598 549.172 425.554L550.318 424.127C561.585 410.095 572.227 396.841 583.376 386.434C587.557 382.553 591.5 379.271 595.216 376.669C599.881 373.272 604.159 370.579 608.303 368.63C618.502 363.784 628.933 362.112 639.103 363.612C650.087 365.063 659.304 368.964 667.122 375.578C673.96 381.145 680.107 388.669 686.359 399.066C695.204 413.114 702.394 430.307 709.961 448.404L710.002 448.501L714.72 459.625C722.558 478.358 732.402 499.499 745.166 514.391C751.242 521.445 757.517 526.541 764.38 530.096C767.416 531.697 770.701 532.776 774.421 533.464C778.22 534.139 782.27 534.293 786.41 533.95C794.608 533.278 801.721 530.854 807.988 526.638C813.854 522.486 819.196 516.492 824.447 508.265C834.87 491.823 841.794 470.161 847.965 449.504L850.766 439.742C856.459 419.724 861.915 400.866 869.61 384.862C874.872 373.983 880.673 365.587 886.99 359.517C894.96 351.336 904.17 345.926 914.483 343.47C924.543 340.974 934.904 341.561 945.874 345.1C954.581 347.799 963.378 352.73 972.862 360.041C984.973 369.346 997.132 382.11 1008.91 394.478L1009.64 395.247L1021.05 407.145C1035.27 421.885 1051.89 438.328 1069.48 448.191C1077.11 452.428 1084.71 454.902 1092.64 455.718C1100.97 456.469 1108.67 455.234 1115.75 452.013C1123.33 448.31 1129.44 443.075 1134.04 436.556C1136.21 433.48 1138.14 429.959 1139.64 426.267C1141.04 422.992 1142.16 418.96 1143.12 413.908C1146.73 394.785 1144.92 372.437 1142.45 351.157L1141.9 347.015C1141.51 344 1141.11 340.996 1140.72 338.029L1140.55 336.726C1138.14 318.095 1135.86 300.463 1136.25 284.397C1136.68 271.482 1138.17 262.253 1141.1 254.477C1142.89 249.454 1145.33 244.889 1148.34 240.874C1151.06 237.146 1154.48 233.628 1159.23 229.735C1167.6 223.095 1177.54 219.254 1188.89 218.237C1198.88 217.439 1208.95 218.312 1219.69 220.846C1228.64 222.944 1238.82 226.208 1251.56 231.071C1260.53 234.449 1269.63 238.128 1278.82 241.872L1283.9 243.948C1304.54 252.2 1326.15 260.375 1345.2 262.459C1364.26 264.543 1378.36 260.516 1388.38 250.158C1411.41 226.316 1395.09 188.392 1377.79 148.297L1377.73 148.168C1359.16 105.02 1338.14 56.2027 1371.93 21.1131C1380.25 12.5536 1390.28 6.61009 1401.8 3.39954C1411.82 0.668604 1423.14 -0.0219767 1435.59 1.35355C1437.14 1.53189 1438.71 1.73832 1440.31 1.97411L1440.31 26.0618C1437.58 25.5697 1434.95 25.1845 1432.4 24.9044C1423.05 23.9152 1414.82 24.3521 1407.95 26.2551C1400.69 28.2223 1394.59 31.9292 1389.32 37.2706C1366.61 60.8788 1382.85 98.5908 1400.03 138.494L1400.08 138.623C1418.78 181.946 1439.89 230.983 1405.84 266.225C1390.27 282.289 1368.84 288.935 1342.01 285.932C1319.95 283.527 1296.51 274.681 1274.3 265.799L1269.22 263.723L1267.47 263.016C1258.97 259.58 1250.62 256.205 1242.39 253.092C1230.7 248.624 1221.56 245.754 1213.63 243.894C1205.37 241.928 1197.79 241.295 1190.57 241.892C1184.08 242.45 1178.95 244.397 1174.55 247.912C1171.55 250.399 1169.49 252.496 1167.91 254.595C1166.35 256.772 1165.01 259.315 1163.9 262.303C1161.31 269.14 1160.73 278.384 1160.53 284.678C1160.17 299.186 1162.44 316.404 1164.86 334.64C1165.14 336.784 1165.41 338.931 1165.68 341.097C1165.96 343.377 1166.24 345.678 1166.55 348.017C1169.22 371.19 1171.2 395.759 1166.92 418.041C1165.61 424.593 1164.06 430.139 1162.14 434.862C1159.92 440.276 1157.15 445.376 1153.97 449.9C1147.01 459.847 1137.68 467.764 1125.97 473.494C1114.66 478.599 1102.56 480.619 1089.9 479.518C1078.47 478.38 1067.77 474.958 1057.17 469.03C1036.81 457.684 1018.73 439.709 1003.36 423.87C999.477 419.917 995.581 415.885 991.767 411.84L990.833 410.863C979.274 398.761 968.338 387.312 957.656 379.096C950.405 373.515 944.023 369.882 938.073 368.026C931.421 365.881 925.535 365.54 919.99 366.911C914.123 368.333 909.227 371.286 904.248 376.419C899.725 380.756 895.554 386.884 891.622 395.141C884.838 409.246 879.75 427.052 874.349 445.956L874.264 446.251L871.406 456.182C864.749 478.523 857.191 501.972 845.117 521.087C838.146 532.079 830.601 540.353 821.842 546.574Z" fill="#9F6FFF"/>
</svg>
